<mxfile host="Electron" modified="2024-03-22T14:34:02.384Z" agent="Mozilla/5.0 (Windows NT 10.0; Win64; x64) AppleWebKit/537.36 (KHTML, like Gecko) draw.io/24.0.4 Chrome/120.0.6099.109 Electron/28.1.0 Safari/537.36" etag="zf_4VHZm5fnDS_1WAjzI" version="24.0.4" type="device">
  <diagram id="C5RBs43oDa-KdzZeNtuy" name="Page-1">
    <mxGraphModel dx="819" dy="471" grid="1" gridSize="10" guides="1" tooltips="1" connect="1" arrows="1" fold="1" page="1" pageScale="1" pageWidth="827" pageHeight="1169" math="0" shadow="0">
      <root>
        <mxCell id="WIyWlLk6GJQsqaUBKTNV-0" />
        <mxCell id="WIyWlLk6GJQsqaUBKTNV-1" parent="WIyWlLk6GJQsqaUBKTNV-0" />
        <mxCell id="rL4PmLd5vSwm4LpBx6Qx-0" value="GameSytem" style="swimlane;fontStyle=0;childLayout=stackLayout;horizontal=1;startSize=26;fillColor=none;horizontalStack=0;resizeParent=1;resizeParentMax=0;resizeLast=0;collapsible=1;marginBottom=0;whiteSpace=wrap;html=1;sketch=1;hachureGap=4;jiggle=2;curveFitting=1;fontFamily=Architects Daughter;fontSource=https%3A%2F%2Ffonts.googleapis.com%2Fcss%3Ffamily%3DArchitects%2BDaughter;" vertex="1" parent="WIyWlLk6GJQsqaUBKTNV-1">
          <mxGeometry x="318" y="150" width="170" height="110" as="geometry" />
        </mxCell>
        <mxCell id="rL4PmLd5vSwm4LpBx6Qx-3" value="&amp;lt;&amp;lt;create&amp;gt;&amp;gt; GameSystem( )&lt;div&gt;&lt;br&gt;&lt;/div&gt;&lt;div&gt;+game(player1 : Move, player2 : Move) : String&lt;br&gt;&lt;/div&gt;" style="text;strokeColor=none;fillColor=none;align=left;verticalAlign=top;spacingLeft=4;spacingRight=4;overflow=hidden;rotatable=0;points=[[0,0.5],[1,0.5]];portConstraint=eastwest;whiteSpace=wrap;html=1;fontFamily=Architects Daughter;fontSource=https%3A%2F%2Ffonts.googleapis.com%2Fcss%3Ffamily%3DArchitects%2BDaughter;" vertex="1" parent="rL4PmLd5vSwm4LpBx6Qx-0">
          <mxGeometry y="26" width="170" height="84" as="geometry" />
        </mxCell>
        <mxCell id="rL4PmLd5vSwm4LpBx6Qx-4" value="&amp;lt;&amp;lt;Interface&amp;gt;&amp;gt; Move" style="swimlane;fontStyle=0;childLayout=stackLayout;horizontal=1;startSize=26;fillColor=none;horizontalStack=0;resizeParent=1;resizeParentMax=0;resizeLast=0;collapsible=1;marginBottom=0;whiteSpace=wrap;html=1;sketch=1;hachureGap=4;jiggle=2;curveFitting=1;fontFamily=Architects Daughter;fontSource=https%3A%2F%2Ffonts.googleapis.com%2Fcss%3Ffamily%3DArchitects%2BDaughter;" vertex="1" parent="WIyWlLk6GJQsqaUBKTNV-1">
          <mxGeometry x="288" y="290" width="250" height="130" as="geometry" />
        </mxCell>
        <mxCell id="rL4PmLd5vSwm4LpBx6Qx-5" value="+ match (playVS : Move) : String&lt;div&gt;+ vsStone() : String&lt;/div&gt;&lt;div&gt;+ vsScissors() : String&lt;/div&gt;&lt;div&gt;+ vsPaper() : String&lt;br&gt;&lt;/div&gt;&lt;div&gt;+ vsSpock() : String&lt;/div&gt;&lt;div&gt;+&amp;nbsp;&lt;span style=&quot;background-color: initial;&quot;&gt;vsLizzard() : String&lt;/span&gt;&lt;/div&gt;" style="text;strokeColor=none;fillColor=none;align=left;verticalAlign=top;spacingLeft=4;spacingRight=4;overflow=hidden;rotatable=0;points=[[0,0.5],[1,0.5]];portConstraint=eastwest;whiteSpace=wrap;html=1;fontFamily=Architects Daughter;fontSource=https%3A%2F%2Ffonts.googleapis.com%2Fcss%3Ffamily%3DArchitects%2BDaughter;" vertex="1" parent="rL4PmLd5vSwm4LpBx6Qx-4">
          <mxGeometry y="26" width="250" height="104" as="geometry" />
        </mxCell>
        <mxCell id="rL4PmLd5vSwm4LpBx6Qx-16" value="Paper" style="swimlane;fontStyle=0;childLayout=stackLayout;horizontal=1;startSize=26;fillColor=none;horizontalStack=0;resizeParent=1;resizeParentMax=0;resizeLast=0;collapsible=1;marginBottom=0;whiteSpace=wrap;html=1;sketch=1;hachureGap=4;jiggle=2;curveFitting=1;fontFamily=Architects Daughter;fontSource=https%3A%2F%2Ffonts.googleapis.com%2Fcss%3Ffamily%3DArchitects%2BDaughter;" vertex="1" parent="WIyWlLk6GJQsqaUBKTNV-1">
          <mxGeometry x="529" y="500" width="180" height="140" as="geometry" />
        </mxCell>
        <mxCell id="rL4PmLd5vSwm4LpBx6Qx-18" value="&lt;div&gt;&amp;lt;&amp;lt;create&amp;gt;&amp;gt;&amp;nbsp;&lt;span style=&quot;text-align: center; background-color: initial;&quot;&gt;Paper&lt;/span&gt;&lt;span style=&quot;background-color: initial;&quot;&gt;()&lt;/span&gt;&lt;/div&gt;+ match (playVS:Move):String&lt;div&gt;+ vsStone() : String&lt;/div&gt;&lt;div&gt;+ vsScissors() : String&lt;/div&gt;&lt;div&gt;+ vsPaper() : String&lt;br&gt;&lt;/div&gt;&lt;div&gt;+ vsSpock() : String&lt;/div&gt;&lt;div&gt;+&amp;nbsp;&lt;span style=&quot;background-color: initial;&quot;&gt;vsLizzard() : String&lt;/span&gt;&lt;/div&gt;" style="text;strokeColor=none;fillColor=none;align=left;verticalAlign=top;spacingLeft=4;spacingRight=4;overflow=hidden;rotatable=0;points=[[0,0.5],[1,0.5]];portConstraint=eastwest;whiteSpace=wrap;html=1;fontFamily=Architects Daughter;fontSource=https%3A%2F%2Ffonts.googleapis.com%2Fcss%3Ffamily%3DArchitects%2BDaughter;" vertex="1" parent="rL4PmLd5vSwm4LpBx6Qx-16">
          <mxGeometry y="26" width="180" height="114" as="geometry" />
        </mxCell>
        <mxCell id="rL4PmLd5vSwm4LpBx6Qx-20" value="" style="endArrow=open;endSize=12;dashed=1;html=1;rounded=0;sketch=1;hachureGap=4;jiggle=2;curveFitting=1;fontFamily=Architects Daughter;fontSource=https%3A%2F%2Ffonts.googleapis.com%2Fcss%3Ffamily%3DArchitects%2BDaughter;entryX=0.207;entryY=1.013;entryDx=0;entryDy=0;entryPerimeter=0;exitX=0.5;exitY=0;exitDx=0;exitDy=0;" edge="1" parent="WIyWlLk6GJQsqaUBKTNV-1" target="rL4PmLd5vSwm4LpBx6Qx-5">
          <mxGeometry width="160" relative="1" as="geometry">
            <mxPoint x="229" y="500" as="sourcePoint" />
            <mxPoint x="342.02" y="340.00199999999995" as="targetPoint" />
          </mxGeometry>
        </mxCell>
        <mxCell id="rL4PmLd5vSwm4LpBx6Qx-21" value="" style="endArrow=open;endSize=12;dashed=1;html=1;rounded=0;sketch=1;hachureGap=4;jiggle=2;curveFitting=1;fontFamily=Architects Daughter;fontSource=https%3A%2F%2Ffonts.googleapis.com%2Fcss%3Ffamily%3DArchitects%2BDaughter;exitX=0.5;exitY=0;exitDx=0;exitDy=0;" edge="1" parent="WIyWlLk6GJQsqaUBKTNV-1" target="rL4PmLd5vSwm4LpBx6Qx-5">
          <mxGeometry width="160" relative="1" as="geometry">
            <mxPoint x="419" y="500" as="sourcePoint" />
            <mxPoint x="410.05999999999995" y="340.99" as="targetPoint" />
          </mxGeometry>
        </mxCell>
        <mxCell id="rL4PmLd5vSwm4LpBx6Qx-22" value="" style="endArrow=open;endSize=12;dashed=1;html=1;rounded=0;sketch=1;hachureGap=4;jiggle=2;curveFitting=1;fontFamily=Architects Daughter;fontSource=https%3A%2F%2Ffonts.googleapis.com%2Fcss%3Ffamily%3DArchitects%2BDaughter;entryX=0.79;entryY=0.999;entryDx=0;entryDy=0;entryPerimeter=0;exitX=0.5;exitY=0;exitDx=0;exitDy=0;" edge="1" parent="WIyWlLk6GJQsqaUBKTNV-1" source="rL4PmLd5vSwm4LpBx6Qx-16" target="rL4PmLd5vSwm4LpBx6Qx-5">
          <mxGeometry width="160" relative="1" as="geometry">
            <mxPoint x="299" y="460" as="sourcePoint" />
            <mxPoint x="484.96000000000004" y="337.01199999999994" as="targetPoint" />
          </mxGeometry>
        </mxCell>
        <mxCell id="rL4PmLd5vSwm4LpBx6Qx-23" value="Scissors" style="swimlane;fontStyle=0;childLayout=stackLayout;horizontal=1;startSize=26;fillColor=none;horizontalStack=0;resizeParent=1;resizeParentMax=0;resizeLast=0;collapsible=1;marginBottom=0;whiteSpace=wrap;html=1;sketch=1;hachureGap=4;jiggle=2;curveFitting=1;fontFamily=Architects Daughter;fontSource=https%3A%2F%2Ffonts.googleapis.com%2Fcss%3Ffamily%3DArchitects%2BDaughter;" vertex="1" parent="WIyWlLk6GJQsqaUBKTNV-1">
          <mxGeometry x="329" y="500" width="180" height="140" as="geometry" />
        </mxCell>
        <mxCell id="rL4PmLd5vSwm4LpBx6Qx-24" value="&lt;div&gt;&amp;lt;&amp;lt;create&amp;gt;&amp;gt;&amp;nbsp;&lt;span style=&quot;text-align: center; background-color: initial;&quot;&gt;Scissors&lt;/span&gt;&lt;span style=&quot;background-color: initial;&quot;&gt;()&lt;/span&gt;&lt;/div&gt;+ match (playVS:Move):String&lt;div&gt;+ vsStone() : String&lt;/div&gt;&lt;div&gt;+ vsScissors() : String&lt;/div&gt;&lt;div&gt;+ vsPaper() : String&lt;br&gt;&lt;/div&gt;&lt;div&gt;+ vsSpock() : String&lt;/div&gt;&lt;div&gt;+&amp;nbsp;&lt;span style=&quot;background-color: initial;&quot;&gt;vsLizzard() : String&lt;/span&gt;&lt;/div&gt;" style="text;strokeColor=none;fillColor=none;align=left;verticalAlign=top;spacingLeft=4;spacingRight=4;overflow=hidden;rotatable=0;points=[[0,0.5],[1,0.5]];portConstraint=eastwest;whiteSpace=wrap;html=1;fontFamily=Architects Daughter;fontSource=https%3A%2F%2Ffonts.googleapis.com%2Fcss%3Ffamily%3DArchitects%2BDaughter;" vertex="1" parent="rL4PmLd5vSwm4LpBx6Qx-23">
          <mxGeometry y="26" width="180" height="114" as="geometry" />
        </mxCell>
        <mxCell id="rL4PmLd5vSwm4LpBx6Qx-25" value="Stone" style="swimlane;fontStyle=0;childLayout=stackLayout;horizontal=1;startSize=26;fillColor=none;horizontalStack=0;resizeParent=1;resizeParentMax=0;resizeLast=0;collapsible=1;marginBottom=0;whiteSpace=wrap;html=1;sketch=1;hachureGap=4;jiggle=2;curveFitting=1;fontFamily=Architects Daughter;fontSource=https%3A%2F%2Ffonts.googleapis.com%2Fcss%3Ffamily%3DArchitects%2BDaughter;" vertex="1" parent="WIyWlLk6GJQsqaUBKTNV-1">
          <mxGeometry x="129" y="500" width="180" height="140" as="geometry" />
        </mxCell>
        <mxCell id="rL4PmLd5vSwm4LpBx6Qx-26" value="&lt;div&gt;&amp;lt;&amp;lt;create&amp;gt;&amp;gt;&amp;nbsp;&lt;span style=&quot;text-align: center; background-color: initial;&quot;&gt;Stone&lt;/span&gt;&lt;span style=&quot;background-color: initial;&quot;&gt;()&lt;/span&gt;&lt;/div&gt;+ match (playVS:Move):String&lt;div&gt;+ vsStone() : String&lt;/div&gt;&lt;div&gt;+ vsScissors() : String&lt;/div&gt;&lt;div&gt;+ vsPaper() : String&lt;br&gt;&lt;/div&gt;&lt;div&gt;+ vsSpock() : String&lt;/div&gt;&lt;div&gt;+&amp;nbsp;&lt;span style=&quot;background-color: initial;&quot;&gt;vsLizzard() : String&lt;/span&gt;&lt;/div&gt;" style="text;strokeColor=none;fillColor=none;align=left;verticalAlign=top;spacingLeft=4;spacingRight=4;overflow=hidden;rotatable=0;points=[[0,0.5],[1,0.5]];portConstraint=eastwest;whiteSpace=wrap;html=1;fontFamily=Architects Daughter;fontSource=https%3A%2F%2Ffonts.googleapis.com%2Fcss%3Ffamily%3DArchitects%2BDaughter;" vertex="1" parent="rL4PmLd5vSwm4LpBx6Qx-25">
          <mxGeometry y="26" width="180" height="114" as="geometry" />
        </mxCell>
        <mxCell id="rL4PmLd5vSwm4LpBx6Qx-27" value="Lizzard" style="swimlane;fontStyle=0;childLayout=stackLayout;horizontal=1;startSize=26;fillColor=none;horizontalStack=0;resizeParent=1;resizeParentMax=0;resizeLast=0;collapsible=1;marginBottom=0;whiteSpace=wrap;html=1;sketch=1;hachureGap=4;jiggle=2;curveFitting=1;fontFamily=Architects Daughter;fontSource=https%3A%2F%2Ffonts.googleapis.com%2Fcss%3Ffamily%3DArchitects%2BDaughter;" vertex="1" parent="WIyWlLk6GJQsqaUBKTNV-1">
          <mxGeometry x="609" y="290" width="180" height="140" as="geometry" />
        </mxCell>
        <mxCell id="rL4PmLd5vSwm4LpBx6Qx-28" value="&lt;div&gt;&amp;lt;&amp;lt;create&amp;gt;&amp;gt;&amp;nbsp;&lt;span style=&quot;text-align: center; background-color: initial;&quot;&gt;Lizzard&lt;/span&gt;&lt;span style=&quot;background-color: initial;&quot;&gt;()&lt;/span&gt;&lt;/div&gt;+ match (playVS:Move):String&lt;div&gt;+ vsStone() : String&lt;/div&gt;&lt;div&gt;+ vsScissors() : String&lt;/div&gt;&lt;div&gt;+ vsPaper() : String&lt;br&gt;&lt;/div&gt;&lt;div&gt;+ vsSpock() : String&lt;/div&gt;&lt;div&gt;+&amp;nbsp;&lt;span style=&quot;background-color: initial;&quot;&gt;vsLizzard() : String&lt;/span&gt;&lt;/div&gt;" style="text;strokeColor=none;fillColor=none;align=left;verticalAlign=top;spacingLeft=4;spacingRight=4;overflow=hidden;rotatable=0;points=[[0,0.5],[1,0.5]];portConstraint=eastwest;whiteSpace=wrap;html=1;fontFamily=Architects Daughter;fontSource=https%3A%2F%2Ffonts.googleapis.com%2Fcss%3Ffamily%3DArchitects%2BDaughter;" vertex="1" parent="rL4PmLd5vSwm4LpBx6Qx-27">
          <mxGeometry y="26" width="180" height="114" as="geometry" />
        </mxCell>
        <mxCell id="rL4PmLd5vSwm4LpBx6Qx-29" value="Spock" style="swimlane;fontStyle=0;childLayout=stackLayout;horizontal=1;startSize=26;fillColor=none;horizontalStack=0;resizeParent=1;resizeParentMax=0;resizeLast=0;collapsible=1;marginBottom=0;whiteSpace=wrap;html=1;sketch=1;hachureGap=4;jiggle=2;curveFitting=1;fontFamily=Architects Daughter;fontSource=https%3A%2F%2Ffonts.googleapis.com%2Fcss%3Ffamily%3DArchitects%2BDaughter;" vertex="1" parent="WIyWlLk6GJQsqaUBKTNV-1">
          <mxGeometry x="39" y="290" width="180" height="140" as="geometry" />
        </mxCell>
        <mxCell id="rL4PmLd5vSwm4LpBx6Qx-30" value="&lt;div&gt;&amp;lt;&amp;lt;create&amp;gt;&amp;gt; Spock()&lt;/div&gt;+ match (playVS:Move):String&lt;div&gt;+ vsStone() : String&lt;/div&gt;&lt;div&gt;+ vsScissors() : String&lt;/div&gt;&lt;div&gt;+ vsPaper() : String&lt;br&gt;&lt;/div&gt;&lt;div&gt;+ vsSpock() : String&lt;/div&gt;&lt;div&gt;+&amp;nbsp;&lt;span style=&quot;background-color: initial;&quot;&gt;vsLizzard() : String&lt;/span&gt;&lt;/div&gt;" style="text;strokeColor=none;fillColor=none;align=left;verticalAlign=top;spacingLeft=4;spacingRight=4;overflow=hidden;rotatable=0;points=[[0,0.5],[1,0.5]];portConstraint=eastwest;whiteSpace=wrap;html=1;fontFamily=Architects Daughter;fontSource=https%3A%2F%2Ffonts.googleapis.com%2Fcss%3Ffamily%3DArchitects%2BDaughter;" vertex="1" parent="rL4PmLd5vSwm4LpBx6Qx-29">
          <mxGeometry y="26" width="180" height="114" as="geometry" />
        </mxCell>
        <mxCell id="rL4PmLd5vSwm4LpBx6Qx-31" value="" style="endArrow=open;endSize=12;dashed=1;html=1;rounded=0;sketch=1;hachureGap=4;jiggle=2;curveFitting=1;fontFamily=Architects Daughter;fontSource=https%3A%2F%2Ffonts.googleapis.com%2Fcss%3Ffamily%3DArchitects%2BDaughter;entryX=0;entryY=0.5;entryDx=0;entryDy=0;exitX=1;exitY=0.5;exitDx=0;exitDy=0;" edge="1" parent="WIyWlLk6GJQsqaUBKTNV-1" source="rL4PmLd5vSwm4LpBx6Qx-30" target="rL4PmLd5vSwm4LpBx6Qx-5">
          <mxGeometry width="160" relative="1" as="geometry">
            <mxPoint x="239" y="510" as="sourcePoint" />
            <mxPoint x="350" y="431" as="targetPoint" />
          </mxGeometry>
        </mxCell>
        <mxCell id="rL4PmLd5vSwm4LpBx6Qx-32" value="" style="endArrow=open;endSize=12;dashed=1;html=1;rounded=0;sketch=1;hachureGap=4;jiggle=2;curveFitting=1;fontFamily=Architects Daughter;fontSource=https%3A%2F%2Ffonts.googleapis.com%2Fcss%3Ffamily%3DArchitects%2BDaughter;entryX=1;entryY=0.5;entryDx=0;entryDy=0;exitX=0;exitY=0.5;exitDx=0;exitDy=0;" edge="1" parent="WIyWlLk6GJQsqaUBKTNV-1" source="rL4PmLd5vSwm4LpBx6Qx-28" target="rL4PmLd5vSwm4LpBx6Qx-5">
          <mxGeometry width="160" relative="1" as="geometry">
            <mxPoint x="229" y="383" as="sourcePoint" />
            <mxPoint x="298" y="378" as="targetPoint" />
          </mxGeometry>
        </mxCell>
      </root>
    </mxGraphModel>
  </diagram>
</mxfile>
